# xmcd
#
# Track frame offsets: 
#        150
#        14747
#        31190
#        40460
#        52532
#        64047
#        83050
#        96112
#        108270
#        131520
#        151267
#
# Disc length: 2250 seconds
#
# Revision: 2
# Processed by: cddbd v1.5.2PL0 Copyright (c) Steve Scherf et al.
# Submitted via: ExactAudioCopy v1.0b1
#
DISCID=7e08c80b
DTITLE=RASCALS, THE - 1968   Once Upon A Dream
DYEAR=1968
DGENRE=General Rock
TTITLE0=Intro: Easy Rollin'
TTITLE1=Rainy Day
TTITLE2=Please Love Me
TTITLE3=Sound Effect - It's Wonderful
TTITLE4=I'm Gonna Love You
TTITLE5=Dave and Eddie - My Hawaii
TTITLE6=My World
TTITLE7=Silly Girl
TTITLE8=Singin' The Blues Too Long
TTITLE9=Bells - Sattva
TTITLE10=Finale: Once Upon A Dream
EXTD=
EXTT0=
EXTT1=
EXTT2=
EXTT3=
EXTT4=
EXTT5=
EXTT6=
EXTT7=
EXTT8=
EXTT9=
EXTT10=
PLAYORDER=
